# xmcd
# 
# Track frame offsets:
#     150
#     15173
#     29742
#     46120
#     57146
#     69334
#     81233
#     94930
#     104157
#     118853
#     132360
#     143687
# 
# Disc length: 2074
# 
# Revision: 1
# Processed by: cddbd v1.5.2PL0 Copyright (c) Steve Scherf et al.
# Submitted via: BonkEnc v1.0.5
# 
DISCID=a208180c
DTITLE=Marie "Queenie" Lyons - Soul Fever
DYEAR=1970
DGENRE=Soul
TTITLE0=See and Don't See
TTITLE1=Daddy's House
TTITLE2=You Used Me
TTITLE3=You're Thing Ain't No Good Without My Thing
TTITLE4=Snake In The Grass
TTITLE5=Your Key Don't Fit It No More
TTITLE6=Fever
TTITLE7=I Don't Want Nobody To Have It But You
TTITLE8=We'll Cry Together
TTITLE9=I'll Drown In My Own Tears
TTITLE10=I Want My Freedom
TTITLE11=Try Me
EXTD=
EXTT0=
EXTT1=
EXTT2=
EXTT3=
EXTT4=
EXTT5=
EXTT6=
EXTT7=
EXTT8=
EXTT9=
EXTT10=
EXTT11=
PLAYORDER=
